<?xml version="1.0" encoding="UTF-8" standalone="no" ?>
<!DOCTYPE svg PUBLIC "-//W3C//DTD SVG 1.1//EN" "http://www.w3.org/Graphics/SVG/1.1/DTD/svg11.dtd">
<svg xmlns="http://www.w3.org/2000/svg" xmlns:xlink="http://www.w3.org/1999/xlink" version="1.1" width="640" height="640" viewBox="0 0 640 640" xml:space="preserve">
<desc>Created with Fabric.js 4.6.0</desc>
<defs>
</defs>
<g transform="matrix(1.31 0 0 1.28 330 324.74)" id="pTkOwWqfATNEKpnYL8nDh"  >
<path style="stroke: rgb(229,65,139); stroke-width: 0; stroke-dasharray: none; stroke-linecap: butt; stroke-dashoffset: 0; stroke-linejoin: miter; stroke-miterlimit: 4; fill: rgb(39,244,9); fill-rule: nonzero; opacity: 1;" vector-effect="non-scaling-stroke"  transform=" translate(0, 0)" d="M 0 -209.8874 C 115.85784 -209.8874 209.8874 -115.85785000000001 209.8874 0 C 209.8874 115.85784 115.85785000000001 209.8874 0 209.8874 C -115.85784 209.8874 -209.8874 115.85785000000001 -209.8874 0 C -209.8874 -115.85784 -115.85785000000001 -209.8874 0 -209.8874 z" stroke-linecap="round" />
</g>
<g transform="matrix(0.23 0 0 0.84 253.4 321)" id="b06pe62t5MtQXG11qdwvV"  >
<path style="stroke: rgb(195,45,202); stroke-width: 0; stroke-dasharray: none; stroke-linecap: butt; stroke-dashoffset: 0; stroke-linejoin: miter; stroke-miterlimit: 4; fill: rgb(255,255,255); fill-rule: nonzero; opacity: 1;" vector-effect="non-scaling-stroke"  transform=" translate(0, 0)" d="M -177.12877 -177.12877 L 177.12877 -177.12877 L 177.12877 177.12877 L -177.12877 177.12877 z" stroke-linecap="round" />
</g>
<g transform="matrix(0.23 0 0 0.84 395.75 321)" id="OhztWiaStMMyGj34fSbU-"  >
<path style="stroke: rgb(195,45,202); stroke-width: 0; stroke-dasharray: none; stroke-linecap: butt; stroke-dashoffset: 0; stroke-linejoin: miter; stroke-miterlimit: 4; fill: rgb(255,255,255); fill-rule: nonzero; opacity: 1;" vector-effect="non-scaling-stroke"  transform=" translate(0, 0)" d="M -177.12877 -177.12877 L 177.12877 -177.12877 L 177.12877 177.12877 L -177.12877 177.12877 z" stroke-linecap="round" />
</g>
</svg>