<?xml version="1.0" encoding="UTF-8" standalone="no" ?>
<!DOCTYPE svg PUBLIC "-//W3C//DTD SVG 1.1//EN" "http://www.w3.org/Graphics/SVG/1.1/DTD/svg11.dtd">
<svg xmlns="http://www.w3.org/2000/svg" xmlns:xlink="http://www.w3.org/1999/xlink" version="1.1" width="640" height="640" viewBox="0 0 640 640" xml:space="preserve">
<desc>Created with Fabric.js 4.6.0</desc>
<defs>
</defs>
<g transform="matrix(1.11 0 0 0.11 302.94 176.06)" id="hWxWvunQ2_Kf-L7ta45i_"  >
<path style="stroke: rgb(245,65,129); stroke-width: 0; stroke-dasharray: none; stroke-linecap: butt; stroke-dashoffset: 0; stroke-linejoin: miter; stroke-miterlimit: 4; fill: rgb(53,237,53); fill-rule: nonzero; opacity: 1;" vector-effect="non-scaling-stroke"  transform=" translate(0, 0)" d="M -181.48148 -181.48148 L 181.48148 -181.48148 L 181.48148 181.48148 L -181.48148 181.48148 z" stroke-linecap="round" />
</g>
<g transform="matrix(0.32 0 0 0.1 158.04 430.65)" id="2RSVFYY8HDhLa-m8_7f59"  >
<path style="stroke: rgb(245,65,129); stroke-width: 0; stroke-dasharray: none; stroke-linecap: butt; stroke-dashoffset: 0; stroke-linejoin: miter; stroke-miterlimit: 4; fill: rgb(53,237,53); fill-rule: nonzero; opacity: 1;" vector-effect="non-scaling-stroke"  transform=" translate(0, 0)" d="M -181.48148 -181.48148 L 181.48148 -181.48148 L 181.48148 181.48148 L -181.48148 181.48148 z" stroke-linecap="round" />
</g>
<g transform="matrix(0 0.78 -0.11 0 119.93 303.24)" id="XQpw4pypMHZVJZ6mcAd9t"  >
<path style="stroke: rgb(245,65,129); stroke-width: 0; stroke-dasharray: none; stroke-linecap: butt; stroke-dashoffset: 0; stroke-linejoin: miter; stroke-miterlimit: 4; fill: rgb(53,237,53); fill-rule: nonzero; opacity: 1;" vector-effect="non-scaling-stroke"  transform=" translate(0, 0)" d="M -181.48148 -181.48148 L 181.48148 -181.48148 L 181.48148 181.48148 L -181.48148 181.48148 z" stroke-linecap="round" />
</g>
<g transform="matrix(0.2 0 0 0.11 482.33 175.47)" id="9haRkB6c_Qmsbs3JFZ1XU"  >
<path style="stroke: rgb(245,65,129); stroke-width: 0; stroke-dasharray: none; stroke-linecap: butt; stroke-dashoffset: 0; stroke-linejoin: miter; stroke-miterlimit: 4; fill: rgb(53,237,53); fill-rule: nonzero; opacity: 1;" vector-effect="non-scaling-stroke"  transform=" translate(0, 0)" d="M -181.48148 -181.48148 L 181.48148 -181.48148 L 181.48148 181.48148 L -181.48148 181.48148 z" stroke-linecap="round" />
</g>
<g transform="matrix(0.47 0 0 0.11 432.83 432.18)" id="d5q2uXly4xVKOYkCM6hua"  >
<path style="stroke: rgb(245,65,129); stroke-width: 0; stroke-dasharray: none; stroke-linecap: butt; stroke-dashoffset: 0; stroke-linejoin: miter; stroke-miterlimit: 4; fill: rgb(53,237,53); fill-rule: nonzero; opacity: 1;" vector-effect="non-scaling-stroke"  transform=" translate(0, 0)" d="M -181.48148 -181.48148 L 181.48148 -181.48148 L 181.48148 181.48148 L -181.48148 181.48148 z" stroke-linecap="round" />
</g>
<g transform="matrix(0 2 1.14 0 325.86 430.65)" id="Mv15O9nv-mSogTU9F2LuM"  >
<path style="stroke: none; stroke-width: 1; stroke-dasharray: none; stroke-linecap: butt; stroke-dashoffset: 0; stroke-linejoin: miter; stroke-miterlimit: 4; fill: rgb(53,237,53); fill-rule: nonzero; opacity: 1;" vector-effect="non-scaling-stroke"  transform=" translate(-40, -40)" d="M 60 40 L 80 80 L 40 80 L 0 80 L 20 40 L 40 0 L 60 40 z" stroke-linecap="round" />
</g>
<g transform="matrix(0 1.04 -1 0 536.63 304.04)" id="a1aw8GYfl2kbPwAtTm4tf"  >
<path style="stroke: rgb(245,65,129); stroke-width: 0; stroke-dasharray: none; stroke-linecap: butt; stroke-dashoffset: 0; stroke-linejoin: miter; stroke-miterlimit: 4; fill: rgb(53,237,53); fill-rule: nonzero; opacity: 1;" vector-effect="non-scaling-stroke"  transform=" translate(0, 0)" d="M -141.75124 -19 L 141.64517 -19 L 141.75125 19 L -141.64516 19 z" stroke-linecap="round" />
</g>
</svg>