<?xml version="1.0" encoding="UTF-8" standalone="no" ?>
<!DOCTYPE svg PUBLIC "-//W3C//DTD SVG 1.1//EN" "http://www.w3.org/Graphics/SVG/1.1/DTD/svg11.dtd">
<svg xmlns="http://www.w3.org/2000/svg" xmlns:xlink="http://www.w3.org/1999/xlink" version="1.1" width="640" height="640" viewBox="0 0 640 640" xml:space="preserve">
<desc>Created with Fabric.js 4.6.0</desc>
<defs>
</defs>
<g transform="matrix(0.32 0 0 0.11 129.64 169.16)" id="yWFkwxa-_-QQYHR3dFOaB"  >
<path style="stroke: rgb(245,65,129); stroke-width: 0; stroke-dasharray: none; stroke-linecap: butt; stroke-dashoffset: 0; stroke-linejoin: miter; stroke-miterlimit: 4; fill: rgb(255,255,255); fill-rule: nonzero; opacity: 1;" vector-effect="non-scaling-stroke"  transform=" translate(0, 0)" d="M -181.48148 -181.48148 L 181.48148 -181.48148 L 181.48148 181.48148 L -181.48148 181.48148 z" stroke-linecap="round" />
</g>
<g transform="matrix(0.32 0 0 0.12 128.79 420.42)" id="-U1otvrAtzo_KR5fXHc_2"  >
<path style="stroke: rgb(245,65,129); stroke-width: 0; stroke-dasharray: none; stroke-linecap: butt; stroke-dashoffset: 0; stroke-linejoin: miter; stroke-miterlimit: 4; fill: rgb(255,255,255); fill-rule: nonzero; opacity: 1;" vector-effect="non-scaling-stroke"  transform=" translate(0, 0)" d="M -181.48148 -181.48148 L 181.48148 -181.48148 L 181.48148 181.48148 L -181.48148 181.48148 z" stroke-linecap="round" />
</g>
<g transform="matrix(0.28 0.29 -0.08 0.08 223.58 220.6)" id="M5WKI9yz4JIria2GgiaVf"  >
<path style="stroke: rgb(245,65,129); stroke-width: 0; stroke-dasharray: none; stroke-linecap: butt; stroke-dashoffset: 0; stroke-linejoin: miter; stroke-miterlimit: 4; fill: rgb(255,255,255); fill-rule: nonzero; opacity: 1;" vector-effect="non-scaling-stroke"  transform=" translate(0, 0)" d="M -181.48148 -181.48148 L 181.48148 -181.48148 L 181.48148 181.48148 L -181.48148 181.48148 z" stroke-linecap="round" />
</g>
<g transform="matrix(-0.71 0.73 -0.08 -0.08 303.74 295.37)" id="YeyBcB_zKpPvNsN26trCg"  >
<path style="stroke: rgb(245,65,129); stroke-width: 0; stroke-dasharray: none; stroke-linecap: butt; stroke-dashoffset: 0; stroke-linejoin: miter; stroke-miterlimit: 4; fill: rgb(255,255,255); fill-rule: nonzero; opacity: 1;" vector-effect="non-scaling-stroke"  transform=" translate(0, 0)" d="M -181.48148 -181.48148 L 181.48148 -181.48148 L 181.48148 181.48148 L -181.48148 181.48148 z" stroke-linecap="round" />
</g>
<g transform="matrix(0.2 0 0 0.11 453.08 168.57)" id="V4xLYBgOabXuOinIalL2K"  >
<path style="stroke: rgb(245,65,129); stroke-width: 0; stroke-dasharray: none; stroke-linecap: butt; stroke-dashoffset: 0; stroke-linejoin: miter; stroke-miterlimit: 4; fill: rgb(255,255,255); fill-rule: nonzero; opacity: 1;" vector-effect="non-scaling-stroke"  transform=" translate(0, 0)" d="M -181.48148 -181.48148 L 181.48148 -181.48148 L 181.48148 181.48148 L -181.48148 181.48148 z" stroke-linecap="round" />
</g>
<g transform="matrix(0.2 0 0 0.11 453.08 427.28)" id="y_g7_NWgzCuWZ5n7OZxBz"  >
<path style="stroke: rgb(245,65,129); stroke-width: 0; stroke-dasharray: none; stroke-linecap: butt; stroke-dashoffset: 0; stroke-linejoin: miter; stroke-miterlimit: 4; fill: rgb(255,255,255); fill-rule: nonzero; opacity: 1;" vector-effect="non-scaling-stroke"  transform=" translate(0, 0)" d="M -181.48148 -181.48148 L 181.48148 -181.48148 L 181.48148 181.48148 L -181.48148 181.48148 z" stroke-linecap="round" />
</g>
<g transform="matrix(0 2 -1.14 0 521.81 174.15)" id="dH1-1hKxDaTQ7h1ddwSRz"  >
<path style="stroke: none; stroke-width: 1; stroke-dasharray: none; stroke-linecap: butt; stroke-dashoffset: 0; stroke-linejoin: miter; stroke-miterlimit: 4; fill: rgb(255,255,255); fill-rule: nonzero; opacity: 1;" vector-effect="non-scaling-stroke"  transform=" translate(-40, -40)" d="M 60 40 L 80 80 L 40 80 L 0 80 L 20 40 L 40 0 L 60 40 z" stroke-linecap="round" />
</g>
<g transform="matrix(0 2 -1.14 0 521.9 431.68)" id="eeg1-Zo7mWOtpOKeU3SwU"  >
<path style="stroke: none; stroke-width: 1; stroke-dasharray: none; stroke-linecap: butt; stroke-dashoffset: 0; stroke-linejoin: miter; stroke-miterlimit: 4; fill: rgb(255,255,255); fill-rule: nonzero; opacity: 1;" vector-effect="non-scaling-stroke"  transform=" translate(-40, -40)" d="M 60 40 L 80 80 L 40 80 L 0 80 L 20 40 L 40 0 L 60 40 z" stroke-linecap="round" />
</g>
<g transform="matrix(0.29 0.3 -0.08 0.08 386.9 383.41)" id="U4sUkeOn2bel0Z2PMuWdn"  >
<path style="stroke: rgb(245,65,129); stroke-width: 0; stroke-dasharray: none; stroke-linecap: butt; stroke-dashoffset: 0; stroke-linejoin: miter; stroke-miterlimit: 4; fill: rgb(255,255,255); fill-rule: nonzero; opacity: 1;" vector-effect="non-scaling-stroke"  transform=" translate(0, 0)" d="M -181.48148 -181.48148 L 181.48148 -181.48148 L 181.48148 181.48148 L -181.48148 181.48148 z" stroke-linecap="round" />
</g>
</svg>